HIERARCHY
ROOT Hips
{
  OFFSET -120.065 97.7907 -413.579
  CHANNELS 6 Xposition Yposition Zposition Zrotation Xrotation Yrotation
  JOINT RightUpLeg
  {
    OFFSET -8.9458 -8.66707 0.101652
    CHANNELS 3 Zrotation Xrotation Yrotation
    JOINT RightLeg
    {
      OFFSET 0 -44.4227 1.3727
      CHANNELS 3 Zrotation Xrotation Yrotation
      JOINT RightFoot
      {
        OFFSET 0.253549 -42.0924 -1.46059
        CHANNELS 3 Zrotation Xrotation Yrotation
        JOINT RightToes
        {
          OFFSET 0.04 -4.41509 8.4991
          CHANNELS 3 Zrotation Xrotation Yrotation
          End Site
          {
            OFFSET -0.08 -0.137448 9.77979
          }
        }
      }
    }
  }
  JOINT Spine
  {
    OFFSET 0 11.8905 0
    CHANNELS 3 Zrotation Xrotation Yrotation
    JOINT Spine1
    {
      OFFSET 0 25.6574 0.127663
      CHANNELS 3 Zrotation Xrotation Yrotation
      JOINT HEad
      {
        OFFSET 0 8.73416 0.011341
        CHANNELS 3 Zrotation Xrotation Yrotation
        End Site
        {
          OFFSET -0.29 12.7742 2.51395
        }
      }
      JOINT LeftShoulder1
      {
        OFFSET 8.99 -0.362252 -0.22
        CHANNELS 3 Zrotation Xrotation Yrotation
        JOINT LeftArm
        {
          OFFSET 10.2827 -0.00338 0.322123
          CHANNELS 3 Zrotation Xrotation Yrotation
          JOINT LeftForeArm
          {
            OFFSET 32.7669 0.099144 -1.42434
            CHANNELS 3 Zrotation Xrotation Yrotation
            JOINT LeftHand
            {
              OFFSET 27.5643 0.085362 1.02216
              CHANNELS 3 Zrotation Xrotation Yrotation
              End Site
              {
                OFFSET 16.7443 -0.6 1.50291
              }
            }
          }
        }
      }
      JOINT RightShoulder
      {
        OFFSET -8.99 -0.362252 -0.22
        CHANNELS 3 Zrotation Xrotation Yrotation
        JOINT RightArm
        {
          OFFSET -10.2827 -0.00338 0.322123
          CHANNELS 3 Zrotation Xrotation Yrotation
          JOINT RightForeArm
          {
            OFFSET -32.8971 0.099144 -1.42434
            CHANNELS 3 Zrotation Xrotation Yrotation
            JOINT RightHand
            {
              OFFSET -25.3806 4.67081 2.732
              CHANNELS 3 Zrotation Xrotation Yrotation
              End Site
              {
                OFFSET -16.6312 -0.6 1.50291
              }
            }
          }
        }
      }
    }
  }
  JOINT LeftUpLeg
  {
    OFFSET 8.9458 -8.66707 0.101652
    CHANNELS 3 Zrotation Xrotation Yrotation
    JOINT LeftLeg
    {
      OFFSET 0 -44.4227 1.3727
      CHANNELS 3 Zrotation Xrotation Yrotation
      JOINT LeftFoot
      {
        OFFSET -0.253549 -42.0924 -1.46059
        CHANNELS 3 Zrotation Xrotation Yrotation
        JOINT LeftToes
        {
          OFFSET -0.04 -4.41509 8.4991
          CHANNELS 3 Zrotation Xrotation Yrotation
          End Site
          {
            OFFSET 0.08 -0.047448 9.77979
          }
        }
      }
    }
  }
}
MOTION
Frames:	7
Frame Time:	0.0166667
-120.789 97.2319 -412.301 13.6056 2.55851 99.1305 -15.57 7.47407 10.5613 19.0608 11.2534 -32.2464 71.0581 2.27673 -3.03274 0.0462048 0.000533403 0.662642 -5.27417 26.2262 -0.973671 -1.42081e-006 4.27775e-007 -0.0022873 0.271228 -0.40395 7.83052 -1.59028e-015 2.18663e-015 -0 -165.119 -52.4726 -130.94 -95.7014 66.5779 -16.4081 22.1041 17.123 -14.4127 17.2936 6.7466 -6.29056 105.639 -5.79568 73.7337 35.9746 54.7703 80.8627 17.6507 20.4523 2.35664 24.0545 -11.3462 -8.62702 -33.6936 25.2511 68.7631 -10.9438 -4.04927 -1.74765 -1.18447e-009 1.5602e-007 -4.87132e-009 
-120.755 97.3331 -412.468 13.5221 2.46266 99.0833 -15.9985 6.48867 10.5657 20.4786 12.4215 -32.7204 67.7464 2.03973 -2.57647 0.0462048 0.000533403 0.662642 -4.9833 26.1362 -1.58514 -1.42081e-006 4.27775e-007 -0.0022873 0.0067336 -0.111501 8.56197 7.95139e-016 -8.94531e-016 -0 -164.065 -52.7792 -130.33 -93.5649 66.6185 -18.4417 22.0463 17.1363 -14.1764 17.1284 6.97762 -5.60012 105.749 -5.96069 73.8338 35.7494 54.8277 81.2355 17.7805 20.3891 2.12287 23.8623 -11.0471 -8.54266 -32.8736 24.608 68.1416 -10.9232 -4.01155 -1.67136 -1.18447e-009 1.5602e-007 -4.87131e-009 
-120.717 97.422 -412.622 13.4425 2.38487 99.0886 -16.4061 5.495 10.4896 21.8961 13.6393 -33.2837 64.3651 1.80802 -2.17028 0.0462048 0.000533403 0.662642 -4.68497 26.0246 -2.18255 -1.42081e-006 4.27775e-007 -0.0022873 -0.209791 0.204613 9.15908 -7.95139e-016 3.57812e-015 1.59028e-015 -162.663 -53.074 -129.386 -90.9421 66.5988 -20.8627 22.0049 17.1266 -13.9648 16.9373 7.19577 -4.91275 105.847 -6.2344 73.9063 35.5761 54.9125 81.6507 17.9364 20.3345 1.88858 23.6629 -10.7193 -8.5371 -32.0675 23.8702 67.4495 -10.8573 -3.98083 -1.59469 -1.18447e-009 1.5602e-007 -4.87132e-009 
-120.67 97.4997 -412.766 13.3673 2.32676 99.1452 -16.7948 4.5105 10.3404 23.3003 14.8907 -33.9259 60.9254 1.58392 -1.81206 0.0462048 0.000533403 0.662642 -4.39519 25.8948 -2.74872 -1.42081e-006 4.27775e-007 -0.0022873 -0.367298 0.536181 9.61349 0 1.98785e-016 -0 -160.825 -53.3276 -128.024 -87.7394 66.5042 -23.7433 21.9528 17.1328 -13.7789 16.7554 7.39063 -4.24349 105.903 -6.61533 73.9563 35.4693 55.0133 82.084 18.0963 20.2755 1.69683 23.4569 -10.3722 -8.59801 -31.2995 23.0726 66.724 -10.758 -3.95015 -1.51796 -1.18447e-009 1.5602e-007 -4.87132e-009 
-120.607 97.568 -412.905 13.2972 2.28973 99.252 -17.1671 3.55031 10.1277 24.6801 16.1596 -34.6376 57.4363 1.36928 -1.49951 0.0462048 0.000533403 0.662642 -4.12759 25.749 -3.26932 -1.42081e-006 4.27775e-007 -0.0022873 -0.457846 0.875694 9.92169 1.59028e-015 1.59028e-015 -0 -158.523 -53.509 -126.214 -83.9468 66.3082 -27.086 21.8904 17.1389 -13.6156 16.6125 7.55661 -3.60615 105.899 -7.0982 73.987 35.4295 55.1192 82.5161 18.2554 20.239 1.53218 23.247 -10.0158 -8.71553 -30.5894 22.2434 66.0029 -10.6339 -3.9142 -1.44144 -1.18447e-009 1.5602e-007 -4.87132e-009 
-120.529 97.6271 -413.042 13.235 2.27457 99.4076 -17.5241 2.62669 9.86347 26.027 17.4306 -35.4123 53.9034 1.16567 -1.23002 0.0462048 0.000533403 0.662642 -3.903 25.5828 -3.72017 -1.42081e-006 4.27775e-007 -0.0022873 -0.467357 1.22648 10.077 7.95139e-016 -5.46658e-016 -7.95139e-016 -148.553 -53.2844 -117.972 -69.5306 65.2142 -39.2771 21.7902 17.1706 -13.437 16.5135 7.7026 -2.99392 105.86 -7.69097 74.0272 35.4558 55.2073 82.9077 18.3908 20.2215 1.41545 23.0377 -9.65961 -8.8813 -29.9511 21.4062 65.3212 -10.4909 -3.86919 -1.36534 -1.18447e-009 1.5602e-007 -4.87132e-009 
-120.436 97.6776 -413.178 13.1829 2.28108 99.6102 -17.8648 1.74733 9.56013 27.3336 18.6873 -36.246 50.3293 0.974248 -1.00111 0.0462048 0.000533403 0.662642 -3.72712 25.4037 -4.10006 -1.42081e-006 4.27775e-007 -0.0022873 -0.397708 1.57357 10.0933 1.59028e-015 -2.93207e-015 7.95139e-016 -141.6 -52.8528 -112.223 -60.2081 63.5364 -47.3503 21.6414 17.2007 -13.2602 16.4853 7.83093 -2.44922 105.772 -8.34514 74.0542 35.5132 55.2877 83.2843 18.4972 20.2222 1.32536 22.8343 -9.31494 -9.08616 -29.3923 20.5812 64.708 -10.3333 -3.81268 -1.28985 -1.18446e-009 1.5602e-007 -4.87132e-009 
